,
.   http://www.scenetime.com/signup.php  ---&gt;  Hottest scene tracker on the net !!!  

    Join Now   http://www.scenetime.com/signup.php

    seed back for speed


 



...................................NFO:.................................................[IMG]http://img204.imageshack.us/img204/9295/50844814.jpg[/IMG]


[color=blue][size=5][b]Inside.Out.2011.BDRip.XVID.AC3.HQ.Hive-CM8[/b][/size][/color]


[b]Thx Hive

CM8 Doing It Right The First Time :D


Source: Bluray

Video: 720x384 @bitrate 1800 2pass
Audio: English DTS to AC3 5.1 @384
Sample: Yes, included
Subs: Yes, english in srt /subs[/b]
 
http://www.imdb.com/title/tt1640486/


General
Complete name                  : Inside.Out.2011.BDRip.XVID.AC3.HQ.Hive-CM8.avi
Format                         : AVI
Format/Info                    : Audio Video Interleave
File size                      : 1.43 GiB
Duration                       : 1h 33mn
Overall bit rate               : 2 192 Kbps
Writing application            : Nandub v1.0rc2
Writing library                : Nandub build 1853/release

Video
ID                             : 0
Format                         : MPEG-4 Visual
Format profile                 : Advanced Simple@L5
Format settings, BVOP          : 1
Format settings, QPel          : Yes
Format settings, GMC           : No warppoints
Format settings, Matrix        : Default (H.263)
Muxing mode                    : Packed bitstream
Codec ID                       : XVID
Codec ID/Hint                  : XviD
Duration                       : 1h 33mn
Bit rate                       : 1 799 Kbps
Width                          : 720 pixels
Height                         : 384 pixels
Display aspect ratio           : 1.850
Frame rate                     : 23.976 fps
Color space                    : YUV
Chroma subsampling             : 4:2:0
Bit depth                      : 8 bits
Scan type                      : Progressive
Compression mode               : Lossy
Bits/(Pixel*Frame)             : 0.271
Stream size                    : 1.17 GiB (82%)
Writing library                : XviD 1.2.1 (UTC 2008-12-04)

Audio
ID                             : 1
Format                         : AC-3
Format/Info                    : Audio Coding 3
Mode extension                 : CM (complete main)
Codec ID                       : 2000
Duration                       : 1h 33mn
Bit rate mode                  : Constant
Bit rate                       : 384 Kbps
Channel(s)                     : 6 channels
Channel positions              : Front: L C R, Side: L R, LFE
Sampling rate                  : 48.0 KHz
Bit depth                      : 16 bits
Compression mode               : Lossy
Stream size                    : 256 MiB (18%)
Alignment                      : Split accross interleaves
Interleave, duration           : 42 ms (1.00 video frame)
Interleave, preload duration   : 500 ms


Plot:
For the last thirteen years AJ has been behind bars, convicted of manslaughter
for killing a man who intended to kill his best friend... 


Cast:
Paul Levesque     ...    Arlo Jayne
Michael Rapaport  ...    Jack Small
Parker Posey      ...    Claire Small
Michael Cudlitz   ...    Detective Calgrove
Bruce Dern        ...    Vic Small


[img]http://img841.imageshack.us/img841/722/84442860.png[/img]
[img]http://img18.imageshack.us/img18/5673/inino.png[/img]
[img]http://img696.imageshack.us/img696/6107/ininiinninin.png[/img]
[img]http://img822.imageshack.us/img822/7980/ininin.png[/img]
[img]http://img840.imageshack.us/img840/5731/inininin.png[/img]
[img]http://img830.imageshack.us/img830/5091/ininininin.png[/img]



Greetz

ViSiON,SiC,SANTi,3LT0N,YanKeeS,MAGNET,THC,T0XiC,LKRG,FANTASIA-PLAY,FANTASIA-M,FLAWL3SS,
D2U,WBZ,BHRG,NOVA,Vik,Rapeseed,SAFC,goldadvance,MEMORY100,KaN1vE,Unevano,Pinnz,Wayne
Mr Hive,cedrict wink,and all P2P groups
Great Work Guys :D

LOOKING FOR ANYTHING YOU WANT TO LOOK AND SOUND BETTER

CM8@hushmail.com